<svg width="1000" height="150" viewBox="0 0 1000 150" fill="none" xmlns="http://www.w3.org/2000/svg">
<path d="M43.916 119V59.0352H53.7188V119H43.916ZM114.34 59.0352H135.258C143.406 59.0352 149.449 60.252 153.387 62.6855C157.352 65.0918 159.334 68.8516 159.334 73.9648C159.334 77.3281 158.473 80.1992 156.75 82.5781C155.027 84.957 152.758 86.4883 149.941 87.1719V87.582C153.66 88.5664 156.354 90.207 158.021 92.5039C159.689 94.8008 160.523 97.7812 160.523 101.445C160.523 106.887 158.473 111.18 154.371 114.324C150.297 117.441 144.732 119 137.678 119H114.34V59.0352ZM130.541 82.0449H135.422C137.746 82.0449 139.537 81.5664 140.795 80.6094C142.08 79.6523 142.723 78.2305 142.723 76.3438C142.723 72.9805 140.18 71.2988 135.094 71.2988H130.541V82.0449ZM130.541 93.8984V106.49H136.242C141.301 106.49 143.83 104.357 143.83 100.092C143.83 98.0957 143.146 96.5645 141.779 95.498C140.439 94.4316 138.484 93.8984 135.914 93.8984H130.541ZM746.719 88.4434C746.719 98.3418 743.971 105.916 738.475 111.166C732.979 116.389 725.062 119 714.727 119H697.951V59.0352H716.49C726.033 59.0352 733.457 61.6055 738.762 66.7461C744.066 71.8867 746.719 79.1191 746.719 88.4434ZM736.383 88.7715C736.383 74.416 729.67 67.2383 716.244 67.2383H707.754V110.756H714.727C729.164 110.756 736.383 103.428 736.383 88.7715Z" fill="#00AEEF"/>
<path d="M104.168 102.717C104.168 108.049 102.24 112.232 98.3848 115.268C94.5293 118.303 89.2109 119.82 82.4297 119.82C75.6484 119.82 70.0977 118.768 65.7773 116.662V107.393C68.5117 108.678 71.4102 109.689 74.4727 110.428C77.5625 111.166 80.4336 111.535 83.0859 111.535C86.9688 111.535 89.8262 110.797 91.6582 109.32C93.5176 107.844 94.4473 105.861 94.4473 103.373C94.4473 101.131 93.5996 99.2305 91.9043 97.6719C90.209 96.1133 86.709 94.2676 81.4043 92.1348C75.9355 89.9199 72.0801 87.3906 69.8379 84.5469C67.5957 81.7031 66.4746 78.2852 66.4746 74.293C66.4746 69.2891 68.252 65.3516 71.8066 62.4805C75.3613 59.6094 80.1328 58.1738 86.1211 58.1738C91.8633 58.1738 97.5781 59.4316 103.266 61.9473L100.148 69.9453C94.8164 67.7031 90.0586 66.582 85.875 66.582C82.7031 66.582 80.2969 67.2793 78.6562 68.6738C77.0156 70.041 76.1953 71.8594 76.1953 74.1289C76.1953 75.6875 76.5234 77.0273 77.1797 78.1484C77.8359 79.2422 78.916 80.2812 80.4199 81.2656C81.9238 82.25 84.6309 83.5488 88.541 85.1621C92.9434 86.9941 96.1699 88.7031 98.2207 90.2891C100.271 91.875 101.775 93.666 102.732 95.6621C103.689 97.6582 104.168 100.01 104.168 102.717ZM187.143 97.1797V119H170.941V59.0352H190.588C206.885 59.0352 215.033 64.9414 215.033 76.7539C215.033 83.6992 211.643 89.0723 204.861 92.873L222.334 119H203.959L191.244 97.1797H187.143ZM187.143 84.998H190.178C195.838 84.998 198.668 82.4961 198.668 77.4922C198.668 73.3633 195.893 71.2988 190.342 71.2988H187.143V84.998ZM227.789 119V59.0352H244.072V119H227.789ZM281.15 83.8906H307.031V116.211C300.004 118.617 292.279 119.82 283.857 119.82C274.615 119.82 267.465 117.141 262.406 111.781C257.375 106.422 254.859 98.7793 254.859 88.8535C254.859 79.1738 257.621 71.6406 263.145 66.2539C268.668 60.8672 276.406 58.1738 286.359 58.1738C290.133 58.1738 293.688 58.5293 297.023 59.2402C300.387 59.9512 303.312 60.8535 305.801 61.9473L300.674 74.6621C296.354 72.5293 291.609 71.4629 286.441 71.4629C281.711 71.4629 278.047 73.0078 275.449 76.0977C272.879 79.1602 271.594 83.5488 271.594 89.2637C271.594 94.8691 272.756 99.1484 275.08 102.102C277.432 105.027 280.809 106.49 285.211 106.49C287.617 106.49 289.832 106.258 291.855 105.793V96.4004H281.15V83.8906ZM370.646 119H354.363V94.5547H335.537V119H319.254V59.0352H335.537V81.2656H354.363V59.0352H370.646V119ZM410.104 119H393.902V72.2832H379.26V59.0352H424.705V72.2832H410.104V119ZM472.488 100.789C472.488 104.508 471.545 107.816 469.658 110.715C467.771 113.586 465.051 115.828 461.496 117.441C457.941 119.027 453.771 119.82 448.986 119.82C444.994 119.82 441.645 119.547 438.938 119C436.23 118.426 433.414 117.441 430.488 116.047V101.609C433.578 103.195 436.791 104.439 440.127 105.342C443.463 106.217 446.525 106.654 449.314 106.654C451.721 106.654 453.484 106.244 454.605 105.424C455.727 104.576 456.287 103.496 456.287 102.184C456.287 101.363 456.055 100.652 455.59 100.051C455.152 99.4219 454.428 98.793 453.416 98.1641C452.432 97.5352 449.779 96.25 445.459 94.3086C441.549 92.5312 438.609 90.8086 436.641 89.1406C434.699 87.4727 433.25 85.5586 432.293 83.3984C431.363 81.2383 430.898 78.6816 430.898 75.7285C430.898 70.2051 432.908 65.8984 436.928 62.8086C440.947 59.7188 446.471 58.1738 453.498 58.1738C459.705 58.1738 466.035 59.6094 472.488 62.4805L467.525 74.9902C461.92 72.4199 457.08 71.1348 453.006 71.1348C450.9 71.1348 449.369 71.5039 448.412 72.2422C447.455 72.9805 446.977 73.8965 446.977 74.9902C446.977 76.166 447.578 77.2188 448.781 78.1484C450.012 79.0781 453.32 80.7734 458.707 83.2344C463.875 85.5586 467.457 88.0605 469.453 90.7402C471.477 93.3926 472.488 96.7422 472.488 100.789ZM525.275 78.1074C525.275 84.8066 523.293 89.9883 519.328 93.6523C515.391 97.2891 509.785 99.1074 502.512 99.1074H497.959V119H481.758V59.0352H502.512C510.086 59.0352 515.773 60.6895 519.574 63.998C523.375 67.3066 525.275 72.0098 525.275 78.1074ZM497.959 85.9004H500.912C503.346 85.9004 505.273 85.2168 506.695 83.8496C508.145 82.4824 508.869 80.5957 508.869 78.1895C508.869 74.1426 506.627 72.1191 502.143 72.1191H497.959V85.9004ZM571.623 119L568.67 107.762H549.188L546.152 119H528.352L547.916 58.7891H569.531L589.342 119H571.623ZM565.307 94.4727L562.723 84.6289C562.121 82.4414 561.383 79.6113 560.508 76.1387C559.66 72.666 559.1 70.1777 558.826 68.6738C558.58 70.0684 558.088 72.3652 557.35 75.5645C556.639 78.7637 555.039 85.0664 552.551 94.4727H565.307ZM622.564 71.4629C618.709 71.4629 615.701 73.0488 613.541 76.2207C611.381 79.3652 610.301 83.7129 610.301 89.2637C610.301 100.803 614.689 106.572 623.467 106.572C626.119 106.572 628.689 106.203 631.178 105.465C633.666 104.727 636.168 103.838 638.684 102.799V116.498C633.68 118.713 628.02 119.82 621.703 119.82C612.652 119.82 605.707 117.195 600.867 111.945C596.055 106.695 593.648 99.1074 593.648 89.1816C593.648 82.9746 594.811 77.5195 597.135 72.8164C599.486 68.1133 602.85 64.5039 607.225 61.9883C611.627 59.4453 616.795 58.1738 622.729 58.1738C629.209 58.1738 635.402 59.582 641.309 62.3984L636.346 75.1543C634.131 74.1152 631.916 73.2402 629.701 72.5293C627.486 71.8184 625.107 71.4629 622.564 71.4629ZM686.016 119H650.414V59.0352H686.016V72.0371H666.615V81.4707H684.58V94.4727H666.615V105.793H686.016V119ZM812.877 88.9355C812.877 98.6973 810.43 106.285 805.535 111.699C800.668 117.113 793.764 119.82 784.822 119.82C775.771 119.82 768.812 117.141 763.945 111.781C759.105 106.395 756.686 98.752 756.686 88.8535C756.686 78.9551 759.119 71.3535 763.986 66.0488C768.881 60.7441 775.854 58.0918 784.904 58.0918C793.818 58.0918 800.709 60.7852 805.576 66.1719C810.443 71.5586 812.877 79.1465 812.877 88.9355ZM767.104 88.9355C767.104 96.3184 768.594 101.924 771.574 105.752C774.555 109.553 778.971 111.453 784.822 111.453C790.646 111.453 795.035 109.566 797.988 105.793C800.969 102.02 802.459 96.4004 802.459 88.9355C802.459 81.5801 800.982 76.002 798.029 72.2012C795.104 68.4004 790.729 66.5 784.904 66.5C779.025 66.5 774.582 68.4004 771.574 72.2012C768.594 76.002 767.104 81.5801 767.104 88.9355ZM881.086 119H870.422L860.25 83.2344C859.812 81.6758 859.266 79.4336 858.609 76.5078C857.953 73.5547 857.557 71.5039 857.42 70.3555C857.146 72.1055 856.695 74.375 856.066 77.1641C855.465 79.9531 854.959 82.0312 854.549 83.3984L844.623 119H833.959L826.207 88.9766L818.332 59.0352H828.34L836.912 93.9805C838.252 99.5859 839.209 104.535 839.783 108.828C840.084 106.504 840.535 103.906 841.137 101.035C841.738 98.1641 842.285 95.8398 842.777 94.0625L852.539 59.0352H862.26L872.268 94.2266C873.225 97.4805 874.236 102.348 875.303 108.828C875.713 104.918 876.697 99.9414 878.256 93.8984L886.787 59.0352H896.713L881.086 119ZM955.201 119H943.184L913.693 71.2168H913.365L913.57 73.8828C913.953 78.9688 914.145 83.6172 914.145 87.8281V119H905.244V59.0352H917.139L946.547 106.572H946.793C946.738 105.943 946.629 103.66 946.465 99.7227C946.301 95.7578 946.219 92.668 946.219 90.4531V59.0352H955.201V119Z" fill="black"/>
<path d="M406.756 12.5C386.756 19.5 383.756 36.5 387.256 47.5C387.256 36 395.256 30.5 407.256 21C408.256 24.5 401.068 31 400.756 33.5C400.356 36.7 403.256 39 405.256 39C408.756 39 411.756 35 413.756 32.5C414.756 38 410.756 48 402.756 51C417.756 51.5 430.256 33.5 431.256 23.5C428.756 26 425.256 28 421.756 28C417.756 28 416.756 26.5 416.756 23C416.756 15.5 437.256 8.5 436.756 0C429.756 7.5 418.256 8.475 406.756 12.5Z" fill="black"/>
</svg>
